# This file uses centimeters as units for non-parametric coordinates.

mtllib grinder_gear.mtl
g default
v -0.500000 -0.100000 0.500000
v -0.300000 -0.100000 0.500000
v -0.100000 -0.100000 0.500000
v 0.100000 -0.100000 0.500000
v 0.300000 -0.100000 0.500000
v 0.500000 -0.100000 0.500000
v -0.500000 0.100000 0.500000
v -0.300000 0.100000 0.500000
v -0.100000 0.100000 0.500000
v 0.100000 0.100000 0.500000
v 0.300000 0.100000 0.500000
v 0.500000 0.100000 0.500000
v -0.500000 0.100000 0.300000
v -0.300000 0.100000 0.300000
v -0.100000 0.100000 0.300000
v 0.100000 0.100000 0.300000
v 0.300000 0.100000 0.300000
v 0.500000 0.100000 0.300000
v -0.500000 0.100000 0.100000
v -0.300000 0.100000 0.100000
v 0.300000 0.100000 0.100000
v 0.500000 0.100000 0.100000
v -0.500000 0.100000 -0.100000
v -0.300000 0.100000 -0.100000
v 0.300000 0.100000 -0.100000
v 0.500000 0.100000 -0.100000
v -0.500000 0.100000 -0.300000
v -0.300000 0.100000 -0.300000
v -0.100000 0.100000 -0.300000
v 0.100000 0.100000 -0.300000
v 0.300000 0.100000 -0.300000
v 0.500000 0.100000 -0.300000
v -0.500000 0.100000 -0.500000
v -0.300000 0.100000 -0.500000
v -0.100000 0.100000 -0.500000
v 0.100000 0.100000 -0.500000
v 0.300000 0.100000 -0.500000
v 0.500000 0.100000 -0.500000
v -0.500000 -0.100000 -0.500000
v -0.300000 -0.100000 -0.500000
v -0.100000 -0.100000 -0.500000
v 0.100000 -0.100000 -0.500000
v 0.300000 -0.100000 -0.500000
v 0.500000 -0.100000 -0.500000
v -0.500000 -0.100000 -0.300000
v -0.300000 -0.100000 -0.300000
v -0.100000 -0.100000 -0.300000
v 0.100000 -0.100000 -0.300000
v 0.300000 -0.100000 -0.300000
v 0.500000 -0.100000 -0.300000
v -0.500000 -0.100000 -0.100000
v -0.300000 -0.100000 -0.100000
v 0.300000 -0.100000 -0.100000
v 0.500000 -0.100000 -0.100000
v -0.500000 -0.100000 0.100000
v -0.300000 -0.100000 0.100000
v 0.300000 -0.100000 0.100000
v 0.500000 -0.100000 0.100000
v -0.500000 -0.100000 0.300000
v -0.300000 -0.100000 0.300000
v -0.100000 -0.100000 0.300000
v 0.100000 -0.100000 0.300000
v 0.300000 -0.100000 0.300000
v 0.500000 -0.100000 0.300000
v -0.300000 -0.100000 0.403628
v -0.100000 -0.100000 0.403628
v -0.100000 0.100000 0.403628
v -0.300000 0.100000 0.403628
v 0.100000 -0.100000 0.403628
v 0.300000 -0.100000 0.403628
v 0.300000 0.100000 0.403628
v 0.100000 0.100000 0.403628
v -0.300000 0.100000 -0.403628
v -0.100000 0.100000 -0.403628
v -0.100000 -0.100000 -0.403628
v -0.300000 -0.100000 -0.403628
v 0.100000 0.100000 -0.403628
v 0.300000 0.100000 -0.403628
v 0.300000 -0.100000 -0.403628
v 0.100000 -0.100000 -0.403628
v 0.403628 -0.100000 -0.300000
v 0.403628 -0.100000 -0.100000
v 0.403628 0.100000 -0.300000
v 0.403628 0.100000 -0.100000
v 0.403628 -0.100000 0.100000
v 0.403628 -0.100000 0.300000
v 0.403628 0.100000 0.100000
v 0.403628 0.100000 0.300000
v -0.403628 -0.100000 -0.300000
v -0.403628 -0.100000 -0.100000
v -0.403628 0.100000 -0.100000
v -0.403628 0.100000 -0.300000
v -0.403628 -0.100000 0.100000
v -0.403628 -0.100000 0.300000
v -0.403628 0.100000 0.300000
v -0.403628 0.100000 0.100000
vt 0.001924 0.001992
vt 0.063452 0.001992
vt 0.063452 0.309633
vt 0.001924 0.309633
vt 0.069880 0.001992
vt 0.131408 0.001992
vt 0.131408 0.309633
vt 0.069880 0.309633
vt 0.137648 0.001992
vt 0.199176 0.001992
vt 0.199176 0.309633
vt 0.137648 0.309633
vt 0.205415 0.001992
vt 0.266944 0.001992
vt 0.266944 0.309633
vt 0.205415 0.309633
vt 0.273183 0.001992
vt 0.334711 0.001992
vt 0.334711 0.309633
vt 0.273183 0.309633
vt 0.666612 0.624984
vt 0.728141 0.624984
vt 0.728141 0.686512
vt 0.666612 0.686512
vt 0.160935 0.624984
vt 0.160935 0.686512
vt 0.099407 0.686512
vt 0.099407 0.624984
vt 0.099407 0.654632
vt 0.160935 0.654632
vt 0.222463 0.871097
vt 0.160935 0.871097
vt 0.099407 0.871097
vt 0.099407 0.809568
vt 0.099407 0.748040
vt 0.222463 0.686512
vt 0.283991 0.686512
vt 0.283991 0.748040
vt 0.283991 0.809568
vt 0.283991 0.871097
vt 0.222463 0.932625
vt 0.160935 0.932625
vt 0.160935 0.902977
vt 0.099407 0.902977
vt 0.099407 0.932625
vt 0.037879 0.871097
vt 0.067527 0.871097
vt 0.067527 0.809568
vt 0.037879 0.809568
vt 0.037879 0.748040
vt 0.283991 0.624984
vt 0.222463 0.624984
vt 0.222463 0.654632
vt 0.283991 0.654632
vt 0.345519 0.748040
vt 0.345519 0.686512
vt 0.315871 0.686512
vt 0.315871 0.748040
vt 0.345519 0.871097
vt 0.345519 0.809568
vt 0.315871 0.809568
vt 0.315871 0.871097
vt 0.283991 0.932625
vt 0.283991 0.902977
vt 0.222463 0.902977
vt 0.345519 0.932625
vt 0.734380 0.624984
vt 0.795908 0.624984
vt 0.795908 0.686512
vt 0.734380 0.686512
vt 0.802148 0.624984
vt 0.863676 0.624984
vt 0.863676 0.686512
vt 0.802148 0.686512
vt 0.869916 0.624984
vt 0.931444 0.624984
vt 0.931444 0.686512
vt 0.869916 0.686512
vt 0.902419 0.690367
vt 0.963947 0.690367
vt 0.963947 0.751895
vt 0.902419 0.751895
vt 0.340951 0.001992
vt 0.402479 0.001992
vt 0.402479 0.309633
vt 0.340951 0.309633
vt 0.408719 0.001992
vt 0.470247 0.001992
vt 0.470247 0.309633
vt 0.408719 0.309633
vt 0.476486 0.001992
vt 0.538015 0.001992
vt 0.538015 0.309633
vt 0.476486 0.309633
vt 0.544254 0.001992
vt 0.605782 0.001992
vt 0.605782 0.309633
vt 0.544254 0.309633
vt 0.612022 0.001992
vt 0.673550 0.001992
vt 0.673550 0.309633
vt 0.612022 0.309633
vt 0.352246 0.624984
vt 0.413774 0.624984
vt 0.413774 0.686512
vt 0.352246 0.686512
vt 0.475302 0.624984
vt 0.475302 0.686512
vt 0.413774 0.654632
vt 0.475302 0.654632
vt 0.536830 0.871096
vt 0.475302 0.871096
vt 0.413774 0.871096
vt 0.413774 0.809568
vt 0.413774 0.748040
vt 0.536830 0.686512
vt 0.598358 0.686512
vt 0.598358 0.748040
vt 0.598358 0.809568
vt 0.598358 0.871096
vt 0.536830 0.932625
vt 0.475302 0.932625
vt 0.352246 0.871096
vt 0.381894 0.871096
vt 0.381894 0.809568
vt 0.352246 0.809568
vt 0.352246 0.748040
vt 0.598358 0.624984
vt 0.536830 0.624984
vt 0.536830 0.654632
vt 0.598358 0.654632
vt 0.659886 0.748040
vt 0.659886 0.686512
vt 0.630238 0.686512
vt 0.630238 0.748040
vt 0.659886 0.871096
vt 0.659886 0.809568
vt 0.630238 0.809568
vt 0.630238 0.871096
vt 0.659886 0.932625
vt 0.598358 0.932625
vt 0.834965 0.751895
vt 0.834965 0.690367
vt 0.896493 0.690367
vt 0.896493 0.751895
vt 0.700057 0.690367
vt 0.761585 0.690367
vt 0.761585 0.751895
vt 0.700057 0.751895
vt 0.767511 0.690367
vt 0.829039 0.690367
vt 0.829039 0.751895
vt 0.767511 0.751895
vt 0.632603 0.936480
vt 0.694131 0.936480
vt 0.694131 0.998008
vt 0.632603 0.998008
vt 0.679789 0.001992
vt 0.741318 0.001992
vt 0.741318 0.309633
vt 0.679789 0.309633
vt 0.747557 0.001992
vt 0.809085 0.001992
vt 0.809085 0.309633
vt 0.747557 0.309633
vt 0.815325 0.001992
vt 0.876853 0.001992
vt 0.876853 0.309633
vt 0.815325 0.309633
vt 0.883093 0.001992
vt 0.944621 0.001992
vt 0.944621 0.309633
vt 0.883093 0.309633
vt 0.902419 0.313488
vt 0.963947 0.313488
vt 0.963947 0.621129
vt 0.902419 0.621129
vt 0.834965 0.313488
vt 0.896493 0.313488
vt 0.896493 0.621129
vt 0.834965 0.621129
vt 0.767511 0.313488
vt 0.829039 0.313488
vt 0.829039 0.621129
vt 0.767511 0.621129
vt 0.700057 0.313488
vt 0.761585 0.313488
vt 0.761585 0.621129
vt 0.700057 0.621129
vt 0.632603 0.313488
vt 0.694131 0.313488
vt 0.694131 0.621129
vt 0.632603 0.621129
vt 0.565149 0.313488
vt 0.626677 0.313488
vt 0.626677 0.621129
vt 0.565149 0.621129
vt 0.626677 0.998008
vt 0.626677 0.968360
vt 0.565149 0.968360
vt 0.565149 0.998008
vt 0.565149 0.936480
vt 0.626677 0.936480
vt 0.559223 0.313488
vt 0.559223 0.621129
vt 0.529575 0.621129
vt 0.529575 0.313488
vt 0.494001 0.621129
vt 0.494001 0.313488
vt 0.523649 0.313488
vt 0.523649 0.621129
vt 0.559223 0.998008
vt 0.559223 0.968360
vt 0.497695 0.968360
vt 0.497695 0.998008
vt 0.497695 0.936480
vt 0.559223 0.936480
vt 0.488075 0.313488
vt 0.488075 0.621129
vt 0.458427 0.621129
vt 0.458427 0.313488
vt 0.422853 0.621129
vt 0.422853 0.313488
vt 0.452501 0.313488
vt 0.452501 0.621129
vt 0.387279 0.621129
vt 0.387279 0.313488
vt 0.416927 0.313488
vt 0.416927 0.621129
vt 0.381353 0.313488
vt 0.381353 0.621129
vt 0.351705 0.621129
vt 0.351705 0.313488
vt 0.316131 0.621129
vt 0.316131 0.313488
vt 0.345779 0.313488
vt 0.345779 0.621129
vt 0.310205 0.313488
vt 0.310205 0.621129
vt 0.280557 0.621129
vt 0.280557 0.313488
vt 0.274631 0.313488
vt 0.274631 0.621129
vt 0.244983 0.621129
vt 0.244983 0.313488
vt 0.239057 0.313488
vt 0.239057 0.621129
vt 0.209409 0.621129
vt 0.209409 0.313488
vt 0.203483 0.313488
vt 0.203483 0.621129
vt 0.173835 0.621129
vt 0.173835 0.313488
vt 0.167909 0.313488
vt 0.167909 0.621129
vt 0.138261 0.621129
vt 0.138261 0.313488
vt 0.430241 0.998008
vt 0.459889 0.998008
vt 0.459889 0.936480
vt 0.430241 0.936480
vt 0.491769 0.936480
vt 0.491769 0.998008
vt 0.102687 0.621129
vt 0.102687 0.313488
vt 0.132335 0.313488
vt 0.132335 0.621129
vt 0.067113 0.621129
vt 0.067113 0.313488
vt 0.096761 0.313488
vt 0.096761 0.621129
vt 0.031539 0.621129
vt 0.031539 0.313488
vt 0.061187 0.313488
vt 0.061187 0.621129
vt 0.424315 0.998008
vt 0.424315 0.968360
vt 0.362787 0.968360
vt 0.362787 0.998008
vt 0.362787 0.936480
vt 0.424315 0.936480
vt 0.001924 0.932625
vt 0.001924 0.624984
vt 0.031572 0.624984
vt 0.031572 0.932625
vn 0.000000 0.000000 1.000000
vn 0.000000 0.000000 1.000000
vn 0.000000 0.000000 1.000000
vn 0.000000 0.000000 1.000000
vn 0.000000 0.000000 1.000000
vn 0.000000 0.000000 1.000000
vn 0.000000 0.000000 1.000000
vn 0.000000 0.000000 1.000000
vn 0.000000 0.000000 1.000000
vn 0.000000 0.000000 1.000000
vn 0.000000 0.000000 1.000000
vn 0.000000 0.000000 1.000000
vn 0.000000 0.000000 1.000000
vn 0.000000 0.000000 1.000000
vn 0.000000 0.000000 1.000000
vn 0.000000 0.000000 1.000000
vn 0.000000 0.000000 1.000000
vn 0.000000 0.000000 1.000000
vn 0.000000 0.000000 1.000000
vn 0.000000 0.000000 1.000000
vn 0.000000 1.000000 0.000000
vn 0.000000 1.000000 0.000000
vn 0.000000 1.000000 0.000000
vn 0.000000 1.000000 0.000000
vn 0.000000 1.000000 0.000000
vn 0.000000 1.000000 0.000000
vn 0.000000 1.000000 0.000000
vn 0.000000 1.000000 0.000000
vn 0.000000 1.000000 0.000000
vn 0.000000 1.000000 0.000000
vn 0.000000 1.000000 0.000000
vn 0.000000 1.000000 0.000000
vn 0.000000 1.000000 0.000000
vn 0.000000 1.000000 0.000000
vn 0.000000 1.000000 0.000000
vn 0.000000 1.000000 0.000000
vn 0.000000 1.000000 -0.000000
vn 0.000000 1.000000 -0.000000
vn 0.000000 1.000000 -0.000000
vn 0.000000 1.000000 0.000000
vn 0.000000 1.000000 0.000000
vn 0.000000 1.000000 0.000000
vn 0.000000 1.000000 0.000000
vn 0.000000 1.000000 0.000000
vn 0.000000 1.000000 -0.000000
vn 0.000000 1.000000 0.000000
vn 0.000000 1.000000 0.000000
vn 0.000000 1.000000 -0.000000
vn 0.000000 1.000000 -0.000000
vn 0.000000 1.000000 -0.000000
vn 0.000000 1.000000 -0.000000
vn 0.000000 1.000000 -0.000000
vn 0.000000 1.000000 0.000000
vn 0.000000 1.000000 0.000000
vn 0.000000 1.000000 0.000000
vn 0.000000 1.000000 0.000000
vn 0.000000 1.000000 0.000000
vn 0.000000 1.000000 0.000000
vn 0.000000 1.000000 0.000000
vn 0.000000 1.000000 0.000000
vn 0.000000 0.000000 -1.000000
vn 0.000000 0.000000 -1.000000
vn 0.000000 0.000000 -1.000000
vn 0.000000 0.000000 -1.000000
vn 0.000000 0.000000 -1.000000
vn 0.000000 0.000000 -1.000000
vn 0.000000 0.000000 -1.000000
vn 0.000000 0.000000 -1.000000
vn 0.000000 0.000000 -1.000000
vn 0.000000 0.000000 -1.000000
vn 0.000000 0.000000 -1.000000
vn 0.000000 0.000000 -1.000000
vn 0.000000 0.000000 -1.000000
vn 0.000000 0.000000 -1.000000
vn 0.000000 0.000000 -1.000000
vn 0.000000 0.000000 -1.000000
vn 0.000000 0.000000 -1.000000
vn 0.000000 0.000000 -1.000000
vn 0.000000 0.000000 -1.000000
vn 0.000000 0.000000 -1.000000
vn 0.000000 -1.000000 0.000000
vn 0.000000 -1.000000 0.000000
vn 0.000000 -1.000000 0.000000
vn 0.000000 -1.000000 0.000000
vn 0.000000 -1.000000 0.000000
vn 0.000000 -1.000000 0.000000
vn 0.000000 -1.000000 0.000000
vn 0.000000 -1.000000 0.000000
vn 0.000000 -1.000000 0.000000
vn 0.000000 -1.000000 0.000000
vn 0.000000 -1.000000 0.000000
vn 0.000000 -1.000000 0.000000
vn 0.000000 -1.000000 0.000000
vn 0.000000 -1.000000 0.000000
vn 0.000000 -1.000000 0.000000
vn 0.000000 -1.000000 0.000000
vn 0.000000 -1.000000 0.000000
vn 0.000000 -1.000000 0.000000
vn 0.000000 -1.000000 0.000000
vn 0.000000 -1.000000 0.000000
vn 0.000000 -1.000000 0.000000
vn 0.000000 -1.000000 0.000000
vn 0.000000 -1.000000 0.000000
vn 0.000000 -1.000000 0.000000
vn 0.000000 -1.000000 0.000000
vn 0.000000 -1.000000 0.000000
vn 0.000000 -1.000000 0.000000
vn 0.000000 -1.000000 0.000000
vn 0.000000 -1.000000 0.000000
vn 0.000000 -1.000000 0.000000
vn 0.000000 -1.000000 0.000000
vn 0.000000 -1.000000 0.000000
vn 0.000000 -1.000000 0.000000
vn 0.000000 -1.000000 0.000000
vn 0.000000 -1.000000 0.000000
vn 0.000000 -1.000000 0.000000
vn 0.000000 -1.000000 0.000000
vn 0.000000 -1.000000 0.000000
vn 0.000000 -1.000000 0.000000
vn 0.000000 -1.000000 0.000000
vn 1.000000 0.000000 0.000000
vn 1.000000 0.000000 0.000000
vn 1.000000 0.000000 0.000000
vn 1.000000 0.000000 0.000000
vn 1.000000 -0.000000 0.000000
vn 1.000000 -0.000000 0.000000
vn 1.000000 -0.000000 0.000000
vn 1.000000 0.000000 0.000000
vn 1.000000 0.000000 0.000000
vn 1.000000 0.000000 0.000000
vn 1.000000 0.000000 0.000000
vn 1.000000 0.000000 0.000000
vn 1.000000 0.000000 0.000000
vn 1.000000 0.000000 0.000000
vn 1.000000 0.000000 0.000000
vn 1.000000 0.000000 0.000000
vn 1.000000 0.000000 0.000000
vn 1.000000 0.000000 0.000000
vn 1.000000 0.000000 0.000000
vn 1.000000 0.000000 0.000000
vn -1.000000 0.000000 0.000000
vn -1.000000 0.000000 0.000000
vn -1.000000 0.000000 0.000000
vn -1.000000 0.000000 0.000000
vn -1.000000 0.000000 0.000000
vn -1.000000 0.000000 0.000000
vn -1.000000 0.000000 0.000000
vn -1.000000 0.000000 0.000000
vn -1.000000 0.000000 0.000000
vn -1.000000 0.000000 0.000000
vn -1.000000 0.000000 0.000000
vn -1.000000 0.000000 0.000000
vn -1.000000 0.000000 0.000000
vn -1.000000 0.000000 0.000000
vn -1.000000 0.000000 0.000000
vn -1.000000 0.000000 0.000000
vn -1.000000 0.000000 0.000000
vn -1.000000 0.000000 0.000000
vn -1.000000 0.000000 0.000000
vn -1.000000 0.000000 0.000000
vn 0.000000 -1.000000 0.000000
vn 0.000000 -1.000000 0.000000
vn -1.000000 0.000000 0.000000
vn -1.000000 0.000000 0.000000
vn -1.000000 0.000000 0.000000
vn -1.000000 0.000000 0.000000
vn 1.000000 0.000000 0.000000
vn 1.000000 0.000000 0.000000
vn 1.000000 0.000000 0.000000
vn 1.000000 0.000000 0.000000
vn 0.000000 -1.000000 0.000000
vn 0.000000 -1.000000 0.000000
vn -1.000000 0.000000 0.000000
vn -1.000000 0.000000 0.000000
vn -1.000000 0.000000 0.000000
vn -1.000000 0.000000 0.000000
vn 1.000000 0.000000 0.000000
vn 1.000000 0.000000 0.000000
vn 1.000000 0.000000 0.000000
vn 1.000000 0.000000 0.000000
vn 0.000000 1.000000 0.000000
vn 0.000000 1.000000 0.000000
vn -1.000000 0.000000 0.000000
vn -1.000000 0.000000 0.000000
vn -1.000000 0.000000 0.000000
vn -1.000000 0.000000 0.000000
vn 1.000000 0.000000 0.000000
vn 1.000000 0.000000 0.000000
vn 1.000000 0.000000 0.000000
vn 1.000000 0.000000 0.000000
vn 0.000000 1.000000 0.000000
vn 0.000000 1.000000 0.000000
vn -1.000000 0.000000 0.000000
vn -1.000000 0.000000 0.000000
vn -1.000000 0.000000 0.000000
vn -1.000000 0.000000 0.000000
vn 1.000000 0.000000 0.000000
vn 1.000000 0.000000 0.000000
vn 1.000000 0.000000 0.000000
vn 1.000000 0.000000 0.000000
vn 0.000000 0.000000 1.000000
vn 0.000000 0.000000 1.000000
vn 0.000000 0.000000 1.000000
vn 0.000000 0.000000 1.000000
vn 0.000000 0.000000 -1.000000
vn 0.000000 0.000000 -1.000000
vn 0.000000 0.000000 -1.000000
vn 0.000000 0.000000 -1.000000
vn 0.000000 -0.000000 1.000000
vn 0.000000 -0.000000 1.000000
vn 0.000000 -0.000000 1.000000
vn 0.000000 -0.000000 1.000000
vn 0.000000 0.000000 -1.000000
vn 0.000000 0.000000 -1.000000
vn 0.000000 0.000000 -1.000000
vn 0.000000 0.000000 -1.000000
vn 0.000000 -1.000000 0.000000
vn 0.000000 -1.000000 0.000000
vn 0.000000 0.000000 -1.000000
vn 0.000000 0.000000 -1.000000
vn 0.000000 0.000000 -1.000000
vn 0.000000 0.000000 -1.000000
vn 0.000000 1.000000 0.000000
vn 0.000000 1.000000 0.000000
vn 0.000000 0.000000 1.000000
vn 0.000000 0.000000 1.000000
vn 0.000000 0.000000 1.000000
vn 0.000000 0.000000 1.000000
vn 0.000000 -1.000000 0.000000
vn 0.000000 -1.000000 0.000000
vn 0.000000 0.000000 -1.000000
vn 0.000000 0.000000 -1.000000
vn 0.000000 0.000000 -1.000000
vn 0.000000 0.000000 -1.000000
vn 0.000000 1.000000 0.000000
vn 0.000000 1.000000 0.000000
vn 0.000000 -0.000000 1.000000
vn 0.000000 -0.000000 1.000000
vn 0.000000 -0.000000 1.000000
vn 0.000000 -0.000000 1.000000
s 1
g pCube2
usemtl lambert2SG
f 1/1/1 2/2/2 7/4/3
f 7/4/3 2/2/2 8/3/4
s 2
f 65/5/5 66/6/6 68/8/7
f 68/8/7 66/6/6 67/7/8
s 3
f 3/9/9 4/10/10 9/12/11
f 9/12/11 4/10/10 10/11/12
s 4
f 69/13/13 70/14/14 72/16/15
f 72/16/15 70/14/14 71/15/16
s 5
f 5/17/17 6/18/18 11/20/19
f 11/20/19 6/18/18 12/19/20
s 6
f 7/21/21 8/22/22 13/24/23
f 13/24/23 8/22/22 14/23/24
f 9/25/25 15/26/26 67/30/27
f 8/28/22 68/29/28 14/27/24
f 15/26/26 14/27/24 67/30/27
f 14/27/24 68/29/28 67/30/27
f 9/67/25 10/68/29 15/70/26
f 15/70/26 10/68/29 16/69/30
f 11/51/31 17/37/32 71/54/33
f 10/52/29 72/53/34 16/36/30
f 17/37/32 16/36/30 71/54/33
f 16/36/30 72/53/34 71/54/33
f 11/71/31 12/72/35 17/74/32
f 17/74/32 12/72/35 18/73/36
f 22/55/37 21/38/38 87/58/39
f 18/56/36 88/57/40 17/37/32
f 21/38/38 17/37/32 87/58/39
f 17/37/32 88/57/40 87/58/39
f 19/50/41 20/35/42 23/49/43
f 23/49/43 20/35/42 24/34/44
f 21/75/38 22/76/37 25/78/45
f 25/78/45 22/76/37 26/77/46
f 28/33/47 24/34/44 29/32/48
f 14/27/24 15/26/26 20/35/42
f 17/37/32 21/38/38 16/36/30
f 31/40/49 30/31/50 25/39/45
f 30/31/50 29/32/48 25/39/45
f 29/32/48 24/34/44 25/39/45
f 24/34/44 20/35/42 25/39/45
f 20/35/42 15/26/26 25/39/45
f 15/26/26 16/36/30 25/39/45
f 16/36/30 21/38/38 25/39/45
f 32/59/51 31/40/49 83/62/52
f 26/60/46 84/61/53 25/39/45
f 31/40/49 25/39/45 83/62/52
f 25/39/45 84/61/53 83/62/52
f 27/79/54 28/80/47 33/82/55
f 33/82/55 28/80/47 34/81/56
f 29/32/48 30/31/50 35/42/57
f 35/42/57 30/31/50 36/41/58
f 31/40/49 32/59/51 37/63/59
f 37/63/59 32/59/51 38/66/60
s 15
f 33/83/61 34/84/62 39/86/63
f 39/86/63 34/84/62 40/85/64
s 16
f 73/87/65 74/88/66 76/90/67
f 76/90/67 74/88/66 75/89/68
s 17
f 35/91/69 36/92/70 41/94/71
f 41/94/71 36/92/70 42/93/72
s 18
f 77/95/73 78/96/74 80/98/75
f 80/98/75 78/96/74 79/97/76
s 19
f 37/99/77 38/100/78 43/102/79
f 43/102/79 38/100/78 44/101/80
s 20
f 39/103/81 40/104/82 45/106/83
f 45/106/83 40/104/82 46/105/84
f 41/107/85 47/108/86 75/110/87
f 40/104/82 76/109/88 46/105/84
f 47/108/86 46/105/84 75/110/87
f 46/105/84 76/109/88 75/110/87
f 41/142/85 42/143/89 47/145/86
f 47/145/86 42/143/89 48/144/90
f 43/128/91 49/117/92 79/131/93
f 42/129/89 80/130/94 48/116/90
f 49/117/92 48/116/90 79/131/93
f 48/116/90 80/130/94 79/131/93
f 43/146/91 44/147/95 49/149/92
f 49/149/92 44/147/95 50/148/96
f 54/132/97 53/118/98 82/135/99
f 50/133/96 81/134/100 49/117/92
f 53/118/98 49/117/92 82/135/99
f 49/117/92 81/134/100 82/135/99
f 51/127/101 52/115/102 55/126/103
f 55/126/103 52/115/102 56/114/104
f 53/150/98 54/151/97 57/153/105
f 57/153/105 54/151/97 58/152/106
f 60/113/107 56/114/104 61/112/108
f 46/105/84 47/108/86 52/115/102
f 49/117/92 53/118/98 48/116/90
f 63/120/109 62/111/110 57/119/105
f 62/111/110 61/112/108 57/119/105
f 61/112/108 56/114/104 57/119/105
f 56/114/104 52/115/102 57/119/105
f 52/115/102 47/108/86 57/119/105
f 47/108/86 48/116/90 57/119/105
f 48/116/90 53/118/98 57/119/105
f 64/136/111 63/120/109 86/139/112
f 58/137/106 85/138/113 57/119/105
f 63/120/109 57/119/105 86/139/112
f 57/119/105 85/138/113 86/139/112
f 59/154/114 60/155/107 1/157/115
f 1/157/115 60/155/107 2/156/116
f 61/112/108 62/111/110 3/122/117
f 3/122/117 62/111/110 4/121/118
f 63/120/109 64/136/111 5/141/119
f 5/141/119 64/136/111 6/140/120
s 29
f 50/158/121 44/159/122 32/161/123
f 32/161/123 44/159/122 38/160/124
s 30
f 82/162/125 81/163/126 84/165/127
f 84/165/127 81/163/126 83/164/128
s 31
f 58/166/129 54/167/130 22/169/131
f 22/169/131 54/167/130 26/168/132
s 32
f 86/170/133 85/171/134 88/173/135
f 88/173/135 85/171/134 87/172/136
s 33
f 6/174/137 64/175/138 12/177/139
f 12/177/139 64/175/138 18/176/140
s 34
f 39/178/141 45/179/142 33/181/143
f 33/181/143 45/179/142 27/180/144
s 35
f 89/182/145 90/183/146 92/185/147
f 92/185/147 90/183/146 91/184/148
s 36
f 51/186/149 55/187/150 23/189/151
f 23/189/151 55/187/150 19/188/152
s 37
f 93/190/153 94/191/154 96/193/155
f 96/193/155 94/191/154 95/192/156
s 38
f 59/194/157 1/195/158 13/197/159
f 13/197/159 1/195/158 7/196/160
s 20
f 3/198/117 66/199/161 61/203/108
f 2/201/116 60/202/107 65/200/162
f 66/199/161 65/200/162 61/203/108
f 65/200/162 60/202/107 61/203/108
s 39
f 3/204/163 9/205/164 66/207/165
f 66/207/165 9/205/164 67/206/166
s 40
f 8/208/167 2/209/168 68/211/169
f 68/211/169 2/209/168 65/210/170
s 20
f 5/212/119 70/213/171 63/217/109
f 4/215/118 62/216/110 69/214/172
f 70/213/171 69/214/172 63/217/109
f 69/214/172 62/216/110 63/217/109
s 41
f 5/218/173 11/219/174 70/221/175
f 70/221/175 11/219/174 71/220/176
s 42
f 10/222/177 4/223/178 72/225/179
f 72/225/179 4/223/178 69/224/180
s 6
f 35/42/57 74/43/181 29/32/48
f 34/45/56 28/33/47 73/44/182
f 74/43/181 73/44/182 29/32/48
f 73/44/182 28/33/47 29/32/48
s 43
f 35/226/183 41/227/184 74/229/185
f 74/229/185 41/227/184 75/228/186
s 44
f 40/230/187 34/231/188 76/233/189
f 76/233/189 34/231/188 73/232/190
s 6
f 37/63/59 78/64/191 31/40/49
f 36/41/58 30/31/50 77/65/192
f 78/64/191 77/65/192 31/40/49
f 77/65/192 30/31/50 31/40/49
s 45
f 37/234/193 43/235/194 78/237/195
f 78/237/195 43/235/194 79/236/196
s 46
f 42/238/197 36/239/198 80/241/199
f 80/241/199 36/239/198 77/240/200
s 47
f 50/242/201 32/243/202 81/245/203
f 81/245/203 32/243/202 83/244/204
s 48
f 26/246/205 54/247/206 84/249/207
f 84/249/207 54/247/206 82/248/208
s 49
f 58/250/209 22/251/210 85/253/211
f 85/253/211 22/251/210 87/252/212
s 50
f 18/254/213 64/255/214 88/257/215
f 88/257/215 64/255/214 86/256/216
s 20
f 51/258/101 90/259/217 52/263/102
f 45/261/83 46/262/84 89/260/218
f 90/259/217 89/260/218 52/263/102
f 89/260/218 46/262/84 52/263/102
s 51
f 51/264/219 23/265/220 90/267/221
f 90/267/221 23/265/220 91/266/222
s 6
f 27/46/54 92/47/223 28/33/47
f 23/49/43 24/34/44 91/48/224
f 92/47/223 91/48/224 28/33/47
f 91/48/224 24/34/44 28/33/47
s 52
f 27/268/225 45/269/226 92/271/227
f 92/271/227 45/269/226 89/270/228
s 20
f 59/123/114 94/124/229 60/113/107
f 55/126/103 56/114/104 93/125/230
f 94/124/229 93/125/230 60/113/107
f 93/125/230 56/114/104 60/113/107
s 53
f 59/272/231 13/273/232 94/275/233
f 94/275/233 13/273/232 95/274/234
s 6
f 19/276/41 96/277/235 20/281/42
f 13/279/23 14/280/24 95/278/236
f 96/277/235 95/278/236 20/281/42
f 95/278/236 14/280/24 20/281/42
s 54
f 19/282/237 55/283/238 96/285/239
f 96/285/239 55/283/238 93/284/240
