# This file uses centimeters as units for non-parametric coordinates.

mtllib tower_extracting.mtl
v -0.066478 -0.500000 0.909288
v 0.066478 -0.500000 0.909288
v -0.066478 0.500000 0.909288
v 0.066478 0.500000 0.909288
v -0.066478 0.500000 0.090712
v 0.066478 0.500000 0.090712
v -0.066478 -0.500000 0.090712
v 0.066478 -0.500000 0.090712
v 0.066478 -0.300000 0.254427
v 0.066478 -0.300000 0.745573
v 0.066478 0.300000 0.254427
v 0.066478 0.300000 0.745573
v 0.103091 -0.300000 0.254427
v 0.103091 -0.300000 0.745573
v 0.103091 0.300000 0.254427
v 0.103091 0.300000 0.745573
v 0.103091 -0.255000 0.291263
v 0.103091 -0.255000 0.708737
v 0.103091 0.255000 0.291263
v 0.103091 0.255000 0.708737
v 0.058961 -0.255000 0.291263
v 0.058961 -0.255000 0.708737
v 0.058961 0.255000 0.291263
v 0.058961 0.255000 0.708737
vt 0.606362 0.001801
vt 0.900621 0.001801
vt 0.900621 0.296060
vt 0.606362 0.296060
vt 0.703749 0.300051
vt 0.998008 0.300051
vt 0.998008 0.594310
vt 0.703749 0.594310
vt 0.403356 0.300051
vt 0.697614 0.300051
vt 0.697614 0.594310
vt 0.403356 0.594310
vt 0.001992 0.001801
vt 0.296251 0.001801
vt 0.296251 0.296060
vt 0.001992 0.296060
vt 0.448497 0.748374
vt 0.448497 0.598302
vt 0.598569 0.598302
vt 0.598569 0.748374
vt 0.304275 0.296060
vt 0.304275 0.001801
vt 0.598533 0.001801
vt 0.598533 0.296060
vt 0.102962 0.300051
vt 0.397220 0.300051
vt 0.338369 0.358903
vt 0.161813 0.358903
vt 0.397220 0.594310
vt 0.338369 0.535458
vt 0.102962 0.594310
vt 0.161813 0.535458
vt 0.015794 0.476607
vt 0.015794 0.300051
vt 0.096826 0.300051
vt 0.096826 0.476607
vt 0.360794 0.774857
vt 0.360794 0.598302
vt 0.441826 0.598302
vt 0.441826 0.774857
vt 0.001992 0.657153
vt 0.001992 0.480598
vt 0.083024 0.480598
vt 0.083024 0.657153
vt 0.089890 0.774857
vt 0.089890 0.598301
vt 0.170922 0.598301
vt 0.170922 0.774857
vt 0.177593 0.598301
vt 0.354148 0.598301
vt 0.340906 0.611543
vt 0.190834 0.611543
vt 0.354148 0.774857
vt 0.340906 0.761615
vt 0.177593 0.774857
vt 0.190834 0.761615
vt 0.704031 0.598302
vt 0.704031 0.748374
vt 0.606362 0.748374
vt 0.606362 0.598302
vt 0.998008 0.752365
vt 0.998008 0.902437
vt 0.900339 0.902437
vt 0.900339 0.752365
vt 0.914518 0.598301
vt 0.914518 0.748373
vt 0.816849 0.748373
vt 0.816849 0.598301
vt 0.809275 0.598301
vt 0.809275 0.748373
vt 0.711606 0.748373
vt 0.711606 0.598301
vn 0.000000 0.000000 1.000000
vn 0.000000 0.000000 1.000000
vn 0.000000 0.000000 1.000000
vn 0.000000 0.000000 1.000000
vn 0.000000 1.000000 0.000000
vn 0.000000 1.000000 0.000000
vn 0.000000 1.000000 0.000000
vn 0.000000 1.000000 0.000000
vn 0.000000 0.000000 -1.000000
vn 0.000000 0.000000 -1.000000
vn 0.000000 0.000000 -1.000000
vn 0.000000 0.000000 -1.000000
vn 0.000000 -1.000000 0.000000
vn 0.000000 -1.000000 0.000000
vn 0.000000 -1.000000 0.000000
vn 0.000000 -1.000000 0.000000
vn 1.000000 0.000000 0.000000
vn 1.000000 0.000000 0.000000
vn 1.000000 0.000000 0.000000
vn 1.000000 0.000000 0.000000
vn -1.000000 0.000000 0.000000
vn -1.000000 0.000000 0.000000
vn -1.000000 0.000000 0.000000
vn -1.000000 0.000000 0.000000
vn 1.000000 0.000000 0.000000
vn 1.000000 0.000000 0.000000
vn 1.000000 0.000000 0.000000
vn 1.000000 0.000000 0.000000
vn 1.000000 -0.000000 0.000000
vn 1.000000 -0.000000 0.000000
vn 1.000000 0.000000 0.000000
vn 1.000000 0.000000 0.000000
vn 0.000000 -1.000000 0.000000
vn 0.000000 -1.000000 0.000000
vn 0.000000 -1.000000 0.000000
vn 0.000000 -1.000000 0.000000
vn 0.000000 0.000000 -1.000000
vn 0.000000 0.000000 -1.000000
vn 0.000000 0.000000 -1.000000
vn 0.000000 0.000000 -1.000000
vn 0.000000 1.000000 0.000000
vn 0.000000 1.000000 0.000000
vn 0.000000 1.000000 0.000000
vn 0.000000 1.000000 0.000000
vn 0.000000 0.000000 1.000000
vn 0.000000 0.000000 1.000000
vn 0.000000 0.000000 1.000000
vn 0.000000 0.000000 1.000000
vn 1.000000 0.000000 0.000000
vn 1.000000 0.000000 0.000000
vn 1.000000 0.000000 0.000000
vn 1.000000 0.000000 0.000000
vn 1.000000 -0.000000 0.000000
vn 1.000000 -0.000000 0.000000
vn 1.000000 -0.000000 0.000000
vn 1.000000 -0.000000 0.000000
vn 0.000000 1.000000 0.000000
vn 0.000000 1.000000 0.000000
vn 0.000000 1.000000 0.000000
vn 0.000000 1.000000 0.000000
vn 0.000000 0.000000 1.000000
vn 0.000000 0.000000 1.000000
vn 0.000000 0.000000 1.000000
vn 0.000000 0.000000 1.000000
vn 0.000000 -1.000000 0.000000
vn 0.000000 -1.000000 0.000000
vn 0.000000 -1.000000 0.000000
vn 0.000000 -1.000000 0.000000
vn 0.000000 0.000000 -1.000000
vn 0.000000 0.000000 -1.000000
vn 0.000000 0.000000 -1.000000
vn 0.000000 0.000000 -1.000000
s 1
usemtl pasted__lambert5SG3
f 1/1/1 2/2/2 3/4/3
f 3/4/3 2/2/2 4/3/4
s 2
f 3/5/5 4/6/6 5/8/7
f 5/8/7 4/6/6 6/7/8
s 3
f 5/9/9 6/10/10 7/12/11
f 7/12/11 6/10/10 8/11/12
s 4
f 7/13/13 8/14/14 1/16/15
f 1/16/15 8/14/14 2/15/16
s 5
f 22/17/17 21/18/18 24/20/19
f 24/20/19 21/18/18 23/19/20
s 6
f 7/21/21 1/22/22 5/24/23
f 5/24/23 1/22/22 3/23/24
s 7
f 2/25/25 8/26/26 10/28/27
f 10/28/27 8/26/26 9/27/28
f 8/26/26 6/29/29 9/27/28
f 9/27/28 6/29/29 11/30/30
f 6/29/29 4/31/31 11/30/30
f 11/30/30 4/31/31 12/32/32
f 4/31/31 2/25/25 12/32/32
f 12/32/32 2/25/25 10/28/27
s 8
f 10/33/33 9/34/34 14/36/35
f 14/36/35 9/34/34 13/35/36
s 9
f 9/37/37 11/38/38 13/40/39
f 13/40/39 11/38/38 15/39/40
s 10
f 11/41/41 12/42/42 15/44/43
f 15/44/43 12/42/42 16/43/44
s 11
f 12/45/45 10/46/46 16/48/47
f 16/48/47 10/46/46 14/47/48
s 12
f 14/49/49 13/50/50 18/52/51
f 18/52/51 13/50/50 17/51/52
f 13/50/50 15/53/53 17/51/52
f 17/51/52 15/53/53 19/54/54
f 15/53/53 16/55/55 19/54/54
f 19/54/54 16/55/55 20/56/56
f 16/55/55 14/49/49 20/56/56
f 20/56/56 14/49/49 18/52/51
s 13
f 18/57/57 17/58/58 22/60/59
f 22/60/59 17/58/58 21/59/60
s 14
f 17/61/61 19/62/62 21/64/63
f 21/64/63 19/62/62 23/63/64
s 15
f 19/65/65 20/66/66 23/68/67
f 23/68/67 20/66/66 24/67/68
s 16
f 20/69/69 18/70/70 24/72/71
f 24/72/71 18/70/70 22/71/72
v -0.088044 -0.500000 0.069146
v -0.088044 -0.500000 -0.063810
v -0.088044 0.500000 0.069146
v -0.088044 0.500000 -0.063810
v -0.906620 0.500000 0.069146
v -0.906620 0.500000 -0.063810
v -0.906620 -0.500000 0.069146
v -0.906620 -0.500000 -0.063810
v -0.742905 -0.300000 -0.063810
v -0.251759 -0.300000 -0.063810
v -0.742905 0.300000 -0.063810
v -0.251759 0.300000 -0.063810
v -0.742905 -0.300000 -0.100423
v -0.251759 -0.300000 -0.100423
v -0.742905 0.300000 -0.100423
v -0.251759 0.300000 -0.100423
v -0.706069 -0.255000 -0.100423
v -0.288595 -0.255000 -0.100423
v -0.706069 0.255000 -0.100423
v -0.288595 0.255000 -0.100423
v -0.706069 -0.255000 -0.056293
v -0.288595 -0.255000 -0.056293
v -0.706069 0.255000 -0.056293
v -0.288595 0.255000 -0.056293
vt 0.606362 0.001801
vt 0.900621 0.001801
vt 0.900621 0.296060
vt 0.606362 0.296060
vt 0.703749 0.300051
vt 0.998008 0.300051
vt 0.998008 0.594310
vt 0.703749 0.594310
vt 0.403356 0.300051
vt 0.697614 0.300051
vt 0.697614 0.594310
vt 0.403356 0.594310
vt 0.001992 0.001801
vt 0.296251 0.001801
vt 0.296251 0.296060
vt 0.001992 0.296060
vt 0.448497 0.748374
vt 0.448497 0.598302
vt 0.598569 0.598302
vt 0.598569 0.748374
vt 0.304275 0.296060
vt 0.304275 0.001801
vt 0.598533 0.001801
vt 0.598533 0.296060
vt 0.102962 0.300051
vt 0.397220 0.300051
vt 0.338369 0.358903
vt 0.161813 0.358903
vt 0.397220 0.594310
vt 0.338369 0.535458
vt 0.102962 0.594310
vt 0.161813 0.535458
vt 0.015794 0.476607
vt 0.015794 0.300051
vt 0.096826 0.300051
vt 0.096826 0.476607
vt 0.360794 0.774857
vt 0.360794 0.598302
vt 0.441826 0.598302
vt 0.441826 0.774857
vt 0.001992 0.657153
vt 0.001992 0.480598
vt 0.083024 0.480598
vt 0.083024 0.657153
vt 0.089890 0.774857
vt 0.089890 0.598301
vt 0.170922 0.598301
vt 0.170922 0.774857
vt 0.177593 0.598301
vt 0.354148 0.598301
vt 0.340906 0.611543
vt 0.190834 0.611543
vt 0.354148 0.774857
vt 0.340906 0.761615
vt 0.177593 0.774857
vt 0.190834 0.761615
vt 0.704031 0.598302
vt 0.704031 0.748374
vt 0.606362 0.748374
vt 0.606362 0.598302
vt 0.998008 0.752365
vt 0.998008 0.902437
vt 0.900339 0.902437
vt 0.900339 0.752365
vt 0.914518 0.598301
vt 0.914518 0.748373
vt 0.816849 0.748373
vt 0.816849 0.598301
vt 0.809275 0.598301
vt 0.809275 0.748373
vt 0.711606 0.748373
vt 0.711606 0.598301
vn 1.000000 0.000000 0.000000
vn 1.000000 0.000000 0.000000
vn 1.000000 0.000000 0.000000
vn 1.000000 0.000000 0.000000
vn 0.000000 1.000000 0.000000
vn 0.000000 1.000000 0.000000
vn 0.000000 1.000000 0.000000
vn 0.000000 1.000000 0.000000
vn -1.000000 0.000000 -0.000000
vn -1.000000 0.000000 -0.000000
vn -1.000000 0.000000 -0.000000
vn -1.000000 0.000000 -0.000000
vn 0.000000 -1.000000 0.000000
vn 0.000000 -1.000000 0.000000
vn 0.000000 -1.000000 0.000000
vn 0.000000 -1.000000 0.000000
vn 0.000000 0.000000 -1.000000
vn 0.000000 0.000000 -1.000000
vn 0.000000 0.000000 -1.000000
vn 0.000000 0.000000 -1.000000
vn -0.000000 0.000000 1.000000
vn -0.000000 0.000000 1.000000
vn -0.000000 0.000000 1.000000
vn -0.000000 0.000000 1.000000
vn 0.000000 0.000000 -1.000000
vn 0.000000 0.000000 -1.000000
vn 0.000000 0.000000 -1.000000
vn 0.000000 0.000000 -1.000000
vn 0.000000 -0.000000 -1.000000
vn 0.000000 -0.000000 -1.000000
vn 0.000000 0.000000 -1.000000
vn 0.000000 0.000000 -1.000000
vn 0.000000 -1.000000 0.000000
vn 0.000000 -1.000000 0.000000
vn 0.000000 -1.000000 0.000000
vn 0.000000 -1.000000 0.000000
vn -1.000000 0.000000 -0.000000
vn -1.000000 0.000000 -0.000000
vn -1.000000 0.000000 -0.000000
vn -1.000000 0.000000 -0.000000
vn 0.000000 1.000000 0.000000
vn 0.000000 1.000000 0.000000
vn 0.000000 1.000000 0.000000
vn 0.000000 1.000000 0.000000
vn 1.000000 0.000000 0.000000
vn 1.000000 0.000000 0.000000
vn 1.000000 0.000000 0.000000
vn 1.000000 0.000000 0.000000
vn 0.000000 0.000000 -1.000000
vn 0.000000 0.000000 -1.000000
vn 0.000000 0.000000 -1.000000
vn 0.000000 0.000000 -1.000000
vn 0.000000 -0.000000 -1.000000
vn 0.000000 -0.000000 -1.000000
vn 0.000000 -0.000000 -1.000000
vn 0.000000 -0.000000 -1.000000
vn 0.000000 1.000000 0.000000
vn 0.000000 1.000000 0.000000
vn 0.000000 1.000000 0.000000
vn 0.000000 1.000000 0.000000
vn 1.000000 0.000000 0.000000
vn 1.000000 0.000000 0.000000
vn 1.000000 0.000000 0.000000
vn 1.000000 0.000000 0.000000
vn 0.000000 -1.000000 0.000000
vn 0.000000 -1.000000 0.000000
vn 0.000000 -1.000000 0.000000
vn 0.000000 -1.000000 0.000000
vn -1.000000 0.000000 -0.000000
vn -1.000000 0.000000 -0.000000
vn -1.000000 0.000000 -0.000000
vn -1.000000 0.000000 -0.000000
s 1
f 25/73/73 26/74/74 27/76/75
f 27/76/75 26/74/74 28/75/76
s 2
f 27/77/77 28/78/78 29/80/79
f 29/80/79 28/78/78 30/79/80
s 3
f 29/81/81 30/82/82 31/84/83
f 31/84/83 30/82/82 32/83/84
s 4
f 31/85/85 32/86/86 25/88/87
f 25/88/87 32/86/86 26/87/88
s 5
f 46/89/89 45/90/90 48/92/91
f 48/92/91 45/90/90 47/91/92
s 6
f 31/93/93 25/94/94 29/96/95
f 29/96/95 25/94/94 27/95/96
s 7
f 26/97/97 32/98/98 34/100/99
f 34/100/99 32/98/98 33/99/100
f 32/98/98 30/101/101 33/99/100
f 33/99/100 30/101/101 35/102/102
f 30/101/101 28/103/103 35/102/102
f 35/102/102 28/103/103 36/104/104
f 28/103/103 26/97/97 36/104/104
f 36/104/104 26/97/97 34/100/99
s 8
f 34/105/105 33/106/106 38/108/107
f 38/108/107 33/106/106 37/107/108
s 9
f 33/109/109 35/110/110 37/112/111
f 37/112/111 35/110/110 39/111/112
s 10
f 35/113/113 36/114/114 39/116/115
f 39/116/115 36/114/114 40/115/116
s 11
f 36/117/117 34/118/118 40/120/119
f 40/120/119 34/118/118 38/119/120
s 12
f 38/121/121 37/122/122 42/124/123
f 42/124/123 37/122/122 41/123/124
f 37/122/122 39/125/125 41/123/124
f 41/123/124 39/125/125 43/126/126
f 39/125/125 40/127/127 43/126/126
f 43/126/126 40/127/127 44/128/128
f 40/127/127 38/121/121 44/128/128
f 44/128/128 38/121/121 42/124/123
s 13
f 42/129/129 41/130/130 46/132/131
f 46/132/131 41/130/130 45/131/132
s 14
f 41/133/133 43/134/134 45/136/135
f 45/136/135 43/134/134 47/135/136
s 15
f 43/137/137 44/138/138 47/140/139
f 47/140/139 44/138/138 48/139/140
s 16
f 44/141/141 42/142/142 48/144/143
f 48/144/143 42/142/142 46/143/144
v -0.928186 -0.500000 0.090712
v -1.061142 -0.500000 0.090712
v -0.928186 0.500000 0.090712
v -1.061142 0.500000 0.090712
v -0.928186 0.500000 0.909288
v -1.061142 0.500000 0.909288
v -0.928186 -0.500000 0.909288
v -1.061142 -0.500000 0.909288
v -1.061142 -0.300000 0.745573
v -1.061142 -0.300000 0.254427
v -1.061142 0.300000 0.745573
v -1.061142 0.300000 0.254427
v -1.097755 -0.300000 0.745573
v -1.097755 -0.300000 0.254427
v -1.097755 0.300000 0.745573
v -1.097755 0.300000 0.254427
v -1.097755 -0.255000 0.708737
v -1.097755 -0.255000 0.291263
v -1.097755 0.255000 0.708737
v -1.097755 0.255000 0.291263
v -1.053625 -0.255000 0.708737
v -1.053625 -0.255000 0.291263
v -1.053625 0.255000 0.708737
v -1.053625 0.255000 0.291263
vt 0.606362 0.001801
vt 0.900621 0.001801
vt 0.900621 0.296060
vt 0.606362 0.296060
vt 0.703749 0.300051
vt 0.998008 0.300051
vt 0.998008 0.594310
vt 0.703749 0.594310
vt 0.403356 0.300051
vt 0.697614 0.300051
vt 0.697614 0.594310
vt 0.403356 0.594310
vt 0.001992 0.001801
vt 0.296251 0.001801
vt 0.296251 0.296060
vt 0.001992 0.296060
vt 0.448497 0.748374
vt 0.448497 0.598302
vt 0.598569 0.598302
vt 0.598569 0.748374
vt 0.304275 0.296060
vt 0.304275 0.001801
vt 0.598533 0.001801
vt 0.598533 0.296060
vt 0.102962 0.300051
vt 0.397220 0.300051
vt 0.338369 0.358903
vt 0.161813 0.358903
vt 0.397220 0.594310
vt 0.338369 0.535458
vt 0.102962 0.594310
vt 0.161813 0.535458
vt 0.015794 0.476607
vt 0.015794 0.300051
vt 0.096826 0.300051
vt 0.096826 0.476607
vt 0.360794 0.774857
vt 0.360794 0.598302
vt 0.441826 0.598302
vt 0.441826 0.774857
vt 0.001992 0.657153
vt 0.001992 0.480598
vt 0.083024 0.480598
vt 0.083024 0.657153
vt 0.089890 0.774857
vt 0.089890 0.598301
vt 0.170922 0.598301
vt 0.170922 0.774857
vt 0.177593 0.598301
vt 0.354148 0.598301
vt 0.340906 0.611543
vt 0.190834 0.611543
vt 0.354148 0.774857
vt 0.340906 0.761615
vt 0.177593 0.774857
vt 0.190834 0.761615
vt 0.704031 0.598302
vt 0.704031 0.748374
vt 0.606362 0.748374
vt 0.606362 0.598302
vt 0.998008 0.752365
vt 0.998008 0.902437
vt 0.900339 0.902437
vt 0.900339 0.752365
vt 0.914518 0.598301
vt 0.914518 0.748373
vt 0.816849 0.748373
vt 0.816849 0.598301
vt 0.809275 0.598301
vt 0.809275 0.748373
vt 0.711606 0.748373
vt 0.711606 0.598301
vn 0.000000 0.000000 -1.000000
vn 0.000000 0.000000 -1.000000
vn 0.000000 0.000000 -1.000000
vn 0.000000 0.000000 -1.000000
vn 0.000000 1.000000 -0.000000
vn 0.000000 1.000000 -0.000000
vn 0.000000 1.000000 -0.000000
vn 0.000000 1.000000 -0.000000
vn -0.000000 0.000000 1.000000
vn -0.000000 0.000000 1.000000
vn -0.000000 0.000000 1.000000
vn -0.000000 0.000000 1.000000
vn 0.000000 -1.000000 0.000000
vn 0.000000 -1.000000 0.000000
vn 0.000000 -1.000000 0.000000
vn 0.000000 -1.000000 0.000000
vn -1.000000 0.000000 -0.000000
vn -1.000000 0.000000 -0.000000
vn -1.000000 0.000000 -0.000000
vn -1.000000 0.000000 -0.000000
vn 1.000000 0.000000 0.000000
vn 1.000000 0.000000 0.000000
vn 1.000000 0.000000 0.000000
vn 1.000000 0.000000 0.000000
vn -1.000000 0.000000 -0.000000
vn -1.000000 0.000000 -0.000000
vn -1.000000 0.000000 -0.000000
vn -1.000000 0.000000 -0.000000
vn -1.000000 -0.000000 -0.000000
vn -1.000000 -0.000000 -0.000000
vn -1.000000 0.000000 -0.000000
vn -1.000000 0.000000 -0.000000
vn 0.000000 -1.000000 0.000000
vn 0.000000 -1.000000 0.000000
vn 0.000000 -1.000000 0.000000
vn 0.000000 -1.000000 0.000000
vn -0.000000 0.000000 1.000000
vn -0.000000 0.000000 1.000000
vn -0.000000 0.000000 1.000000
vn -0.000000 0.000000 1.000000
vn 0.000000 1.000000 -0.000000
vn 0.000000 1.000000 -0.000000
vn 0.000000 1.000000 -0.000000
vn 0.000000 1.000000 -0.000000
vn 0.000000 0.000000 -1.000000
vn 0.000000 0.000000 -1.000000
vn 0.000000 0.000000 -1.000000
vn 0.000000 0.000000 -1.000000
vn -1.000000 0.000000 -0.000000
vn -1.000000 0.000000 -0.000000
vn -1.000000 0.000000 -0.000000
vn -1.000000 0.000000 -0.000000
vn -1.000000 -0.000000 -0.000000
vn -1.000000 -0.000000 -0.000000
vn -1.000000 -0.000000 -0.000000
vn -1.000000 -0.000000 -0.000000
vn 0.000000 1.000000 -0.000000
vn 0.000000 1.000000 -0.000000
vn 0.000000 1.000000 -0.000000
vn 0.000000 1.000000 -0.000000
vn 0.000000 0.000000 -1.000000
vn 0.000000 0.000000 -1.000000
vn 0.000000 0.000000 -1.000000
vn 0.000000 0.000000 -1.000000
vn 0.000000 -1.000000 0.000000
vn 0.000000 -1.000000 0.000000
vn 0.000000 -1.000000 0.000000
vn 0.000000 -1.000000 0.000000
vn -0.000000 0.000000 1.000000
vn -0.000000 0.000000 1.000000
vn -0.000000 0.000000 1.000000
vn -0.000000 0.000000 1.000000
s 1
f 49/145/145 50/146/146 51/148/147
f 51/148/147 50/146/146 52/147/148
s 2
f 51/149/149 52/150/150 53/152/151
f 53/152/151 52/150/150 54/151/152
s 3
f 53/153/153 54/154/154 55/156/155
f 55/156/155 54/154/154 56/155/156
s 4
f 55/157/157 56/158/158 49/160/159
f 49/160/159 56/158/158 50/159/160
s 5
f 70/161/161 69/162/162 72/164/163
f 72/164/163 69/162/162 71/163/164
s 6
f 55/165/165 49/166/166 53/168/167
f 53/168/167 49/166/166 51/167/168
s 7
f 50/169/169 56/170/170 58/172/171
f 58/172/171 56/170/170 57/171/172
f 56/170/170 54/173/173 57/171/172
f 57/171/172 54/173/173 59/174/174
f 54/173/173 52/175/175 59/174/174
f 59/174/174 52/175/175 60/176/176
f 52/175/175 50/169/169 60/176/176
f 60/176/176 50/169/169 58/172/171
s 8
f 58/177/177 57/178/178 62/180/179
f 62/180/179 57/178/178 61/179/180
s 9
f 57/181/181 59/182/182 61/184/183
f 61/184/183 59/182/182 63/183/184
s 10
f 59/185/185 60/186/186 63/188/187
f 63/188/187 60/186/186 64/187/188
s 11
f 60/189/189 58/190/190 64/192/191
f 64/192/191 58/190/190 62/191/192
s 12
f 62/193/193 61/194/194 66/196/195
f 66/196/195 61/194/194 65/195/196
f 61/194/194 63/197/197 65/195/196
f 65/195/196 63/197/197 67/198/198
f 63/197/197 64/199/199 67/198/198
f 67/198/198 64/199/199 68/200/200
f 64/199/199 62/193/193 68/200/200
f 68/200/200 62/193/193 66/196/195
s 13
f 66/201/201 65/202/202 70/204/203
f 70/204/203 65/202/202 69/203/204
s 14
f 65/205/205 67/206/206 69/208/207
f 69/208/207 67/206/206 71/207/208
s 15
f 67/209/209 68/210/210 71/212/211
f 71/212/211 68/210/210 72/211/212
s 16
f 68/213/213 66/214/214 72/216/215
f 72/216/215 66/214/214 70/215/216
v -0.906620 -0.500000 0.930854
v -0.906620 -0.500000 1.063810
v -0.906620 0.500000 0.930854
v -0.906620 0.500000 1.063810
v -0.088044 0.500000 0.930854
v -0.088044 0.500000 1.063810
v -0.088044 -0.500000 0.930854
v -0.088044 -0.500000 1.063810
v -0.251759 -0.300000 1.063810
v -0.742905 -0.300000 1.063810
v -0.251759 0.300000 1.063810
v -0.742905 0.300000 1.063810
v -0.251759 -0.300000 1.100423
v -0.742905 -0.300000 1.100423
v -0.251759 0.300000 1.100423
v -0.742905 0.300000 1.100423
v -0.288595 -0.255000 1.100423
v -0.706069 -0.255000 1.100423
v -0.288595 0.255000 1.100423
v -0.706069 0.255000 1.100423
v -0.288595 -0.255000 1.056293
v -0.706069 -0.255000 1.056293
v -0.288595 0.255000 1.056293
v -0.706069 0.255000 1.056293
vt 0.606362 0.001801
vt 0.900621 0.001801
vt 0.900621 0.296060
vt 0.606362 0.296060
vt 0.703749 0.300051
vt 0.998008 0.300051
vt 0.998008 0.594310
vt 0.703749 0.594310
vt 0.403356 0.300051
vt 0.697614 0.300051
vt 0.697614 0.594310
vt 0.403356 0.594310
vt 0.001992 0.001801
vt 0.296251 0.001801
vt 0.296251 0.296060
vt 0.001992 0.296060
vt 0.448497 0.748374
vt 0.448497 0.598302
vt 0.598569 0.598302
vt 0.598569 0.748374
vt 0.304275 0.296060
vt 0.304275 0.001801
vt 0.598533 0.001801
vt 0.598533 0.296060
vt 0.102962 0.300051
vt 0.397220 0.300051
vt 0.338369 0.358903
vt 0.161813 0.358903
vt 0.397220 0.594310
vt 0.338369 0.535458
vt 0.102962 0.594310
vt 0.161813 0.535458
vt 0.015794 0.476607
vt 0.015794 0.300051
vt 0.096826 0.300051
vt 0.096826 0.476607
vt 0.360794 0.774857
vt 0.360794 0.598302
vt 0.441826 0.598302
vt 0.441826 0.774857
vt 0.001992 0.657153
vt 0.001992 0.480598
vt 0.083024 0.480598
vt 0.083024 0.657153
vt 0.089890 0.774857
vt 0.089890 0.598301
vt 0.170922 0.598301
vt 0.170922 0.774857
vt 0.177593 0.598301
vt 0.354148 0.598301
vt 0.340906 0.611543
vt 0.190834 0.611543
vt 0.354148 0.774857
vt 0.340906 0.761615
vt 0.177593 0.774857
vt 0.190834 0.761615
vt 0.704031 0.598302
vt 0.704031 0.748374
vt 0.606362 0.748374
vt 0.606362 0.598302
vt 0.998008 0.752365
vt 0.998008 0.902437
vt 0.900339 0.902437
vt 0.900339 0.752365
vt 0.914518 0.598301
vt 0.914518 0.748373
vt 0.816849 0.748373
vt 0.816849 0.598301
vt 0.809275 0.598301
vt 0.809275 0.748373
vt 0.711606 0.748373
vt 0.711606 0.598301
vn -1.000000 0.000000 0.000000
vn -1.000000 0.000000 0.000000
vn -1.000000 0.000000 0.000000
vn -1.000000 0.000000 0.000000
vn 0.000000 1.000000 0.000000
vn 0.000000 1.000000 0.000000
vn 0.000000 1.000000 0.000000
vn 0.000000 1.000000 0.000000
vn 1.000000 0.000000 -0.000000
vn 1.000000 0.000000 -0.000000
vn 1.000000 0.000000 -0.000000
vn 1.000000 0.000000 -0.000000
vn 0.000000 -1.000000 0.000000
vn 0.000000 -1.000000 0.000000
vn 0.000000 -1.000000 0.000000
vn 0.000000 -1.000000 0.000000
vn 0.000000 0.000000 1.000000
vn 0.000000 0.000000 1.000000
vn 0.000000 0.000000 1.000000
vn 0.000000 0.000000 1.000000
vn -0.000000 0.000000 -1.000000
vn -0.000000 0.000000 -1.000000
vn -0.000000 0.000000 -1.000000
vn -0.000000 0.000000 -1.000000
vn 0.000000 0.000000 1.000000
vn 0.000000 0.000000 1.000000
vn 0.000000 0.000000 1.000000
vn 0.000000 0.000000 1.000000
vn 0.000000 -0.000000 1.000000
vn 0.000000 -0.000000 1.000000
vn 0.000000 0.000000 1.000000
vn 0.000000 0.000000 1.000000
vn 0.000000 -1.000000 0.000000
vn 0.000000 -1.000000 0.000000
vn 0.000000 -1.000000 0.000000
vn 0.000000 -1.000000 0.000000
vn 1.000000 0.000000 -0.000000
vn 1.000000 0.000000 -0.000000
vn 1.000000 0.000000 -0.000000
vn 1.000000 0.000000 -0.000000
vn 0.000000 1.000000 0.000000
vn 0.000000 1.000000 0.000000
vn 0.000000 1.000000 0.000000
vn 0.000000 1.000000 0.000000
vn -1.000000 0.000000 0.000000
vn -1.000000 0.000000 0.000000
vn -1.000000 0.000000 0.000000
vn -1.000000 0.000000 0.000000
vn 0.000000 0.000000 1.000000
vn 0.000000 0.000000 1.000000
vn 0.000000 0.000000 1.000000
vn 0.000000 0.000000 1.000000
vn 0.000000 -0.000000 1.000000
vn 0.000000 -0.000000 1.000000
vn 0.000000 -0.000000 1.000000
vn 0.000000 -0.000000 1.000000
vn 0.000000 1.000000 0.000000
vn 0.000000 1.000000 0.000000
vn 0.000000 1.000000 0.000000
vn 0.000000 1.000000 0.000000
vn -1.000000 0.000000 0.000000
vn -1.000000 0.000000 0.000000
vn -1.000000 0.000000 0.000000
vn -1.000000 0.000000 0.000000
vn 0.000000 -1.000000 0.000000
vn 0.000000 -1.000000 0.000000
vn 0.000000 -1.000000 0.000000
vn 0.000000 -1.000000 0.000000
vn 1.000000 0.000000 -0.000000
vn 1.000000 0.000000 -0.000000
vn 1.000000 0.000000 -0.000000
vn 1.000000 0.000000 -0.000000
s 1
f 73/217/217 74/218/218 75/220/219
f 75/220/219 74/218/218 76/219/220
s 2
f 75/221/221 76/222/222 77/224/223
f 77/224/223 76/222/222 78/223/224
s 3
f 77/225/225 78/226/226 79/228/227
f 79/228/227 78/226/226 80/227/228
s 4
f 79/229/229 80/230/230 73/232/231
f 73/232/231 80/230/230 74/231/232
s 5
f 94/233/233 93/234/234 96/236/235
f 96/236/235 93/234/234 95/235/236
s 6
f 79/237/237 73/238/238 77/240/239
f 77/240/239 73/238/238 75/239/240
s 7
f 74/241/241 80/242/242 82/244/243
f 82/244/243 80/242/242 81/243/244
f 80/242/242 78/245/245 81/243/244
f 81/243/244 78/245/245 83/246/246
f 78/245/245 76/247/247 83/246/246
f 83/246/246 76/247/247 84/248/248
f 76/247/247 74/241/241 84/248/248
f 84/248/248 74/241/241 82/244/243
s 8
f 82/249/249 81/250/250 86/252/251
f 86/252/251 81/250/250 85/251/252
s 9
f 81/253/253 83/254/254 85/256/255
f 85/256/255 83/254/254 87/255/256
s 10
f 83/257/257 84/258/258 87/260/259
f 87/260/259 84/258/258 88/259/260
s 11
f 84/261/261 82/262/262 88/264/263
f 88/264/263 82/262/262 86/263/264
s 12
f 86/265/265 85/266/266 90/268/267
f 90/268/267 85/266/266 89/267/268
f 85/266/266 87/269/269 89/267/268
f 89/267/268 87/269/269 91/270/270
f 87/269/269 88/271/271 91/270/270
f 91/270/270 88/271/271 92/272/272
f 88/271/271 86/265/265 92/272/272
f 92/272/272 86/265/265 90/268/267
s 13
f 90/273/273 89/274/274 94/276/275
f 94/276/275 89/274/274 93/275/276
s 14
f 89/277/277 91/278/278 93/280/279
f 93/280/279 91/278/278 95/279/280
s 15
f 91/281/281 92/282/282 95/284/283
f 95/284/283 92/282/282 96/283/284
s 16
f 92/285/285 90/286/286 96/288/287
f 96/288/287 90/286/286 94/287/288
